REM DIRINDEX 1\2\3,1\2\4,1\2\5,1\2\6
REM DIRNAME cjc157,folder01,folder02,folder03,folder04,folder05
TITLE ""
FILE "056 056.mp3" MP3
  TRACK 01 AUDIO
    TITLE "0:"
    INDEX 01 00:00:00
  TRACK 02 AUDIO
    TITLE "3:cjc157_2120"
    INDEX 01 00:00:11
  TRACK 03 AUDIO
    TITLE "0:"
    INDEX 01 00:01:44
  TRACK 04 AUDIO
    TITLE "4:cjc157_2121"
    INDEX 01 00:02:18
  TRACK 05 AUDIO
    TITLE "0:"
    INDEX 01 00:03:41
  TRACK 06 AUDIO
    TITLE "5:cjc157_2122"
    INDEX 01 00:04:09
  TRACK 07 AUDIO
    TITLE "0:"
    INDEX 01 00:08:62
  TRACK 08 AUDIO
    TITLE "3:cjc157_2123"
    INDEX 01 00:09:32
  TRACK 09 AUDIO
    TITLE "0:"
    INDEX 01 00:10:66
  TRACK 10 AUDIO
    TITLE "4:cjc157_2124"
    INDEX 01 00:11:39
  TRACK 11 AUDIO
    TITLE "0:"
    INDEX 01 00:12:63
  TRACK 12 AUDIO
    TITLE "5:cjc157_2125"
    INDEX 01 00:13:32
  TRACK 13 AUDIO
    TITLE "0:"
    INDEX 01 00:15:64
  TRACK 14 AUDIO
    TITLE "5:cjc157_2126"
    INDEX 01 00:16:32
  TRACK 15 AUDIO
    TITLE "0:"
    INDEX 01 00:19:58
  TRACK 16 AUDIO
    TITLE "3:cjc157_2127"
    INDEX 01 00:20:28
  TRACK 17 AUDIO
    TITLE "0:"
    INDEX 01 00:21:45
  TRACK 18 AUDIO
    TITLE "4:cjc157_2128"
    INDEX 01 00:22:19
  TRACK 19 AUDIO
    TITLE "0:"
    INDEX 01 00:23:24
  TRACK 20 AUDIO
    TITLE "5:cjc157_2129"
    INDEX 01 00:23:71
  TRACK 21 AUDIO
    TITLE "0:"
    INDEX 01 00:26:18
  TRACK 22 AUDIO
    TITLE "3:cjc157_2130"
    INDEX 01 00:26:66
  TRACK 23 AUDIO
    TITLE "0:"
    INDEX 01 00:28:19
  TRACK 24 AUDIO
    TITLE "4:cjc157_2131"
    INDEX 01 00:28:68
  TRACK 25 AUDIO
    TITLE "0:"
    INDEX 01 00:29:72
  TRACK 26 AUDIO
    TITLE "5:cjc157_2132"
    INDEX 01 00:30:36
  TRACK 27 AUDIO
    TITLE "0:"
    INDEX 01 00:32:68
  TRACK 28 AUDIO
    TITLE "5:cjc157_2133"
    INDEX 01 00:33:38
  TRACK 29 AUDIO
    TITLE "0:"
    INDEX 01 00:35:06
  TRACK 30 AUDIO
    TITLE "3:cjc157_2134"
    INDEX 01 00:35:64
  TRACK 31 AUDIO
    TITLE "0:"
    INDEX 01 00:37:22
  TRACK 32 AUDIO
    TITLE "4:cjc157_2135"
    INDEX 01 00:37:71
  TRACK 33 AUDIO
    TITLE "0:"
    INDEX 01 00:39:05
  TRACK 34 AUDIO
    TITLE "5:cjc157_2136"
    INDEX 01 00:39:51
  TRACK 35 AUDIO
    TITLE "0:"
    INDEX 01 00:42:29
  TRACK 36 AUDIO
    TITLE "3:cjc157_2137"
    INDEX 01 00:42:72
  TRACK 37 AUDIO
    TITLE "0:"
    INDEX 01 00:44:60
  TRACK 38 AUDIO
    TITLE "4:cjc157_2138"
    INDEX 01 00:45:35
  TRACK 39 AUDIO
    TITLE "0:"
    INDEX 01 00:46:47
  TRACK 40 AUDIO
    TITLE "5:cjc157_2139"
    INDEX 01 00:47:13
  TRACK 41 AUDIO
    TITLE "0:"
    INDEX 01 00:51:18
  TRACK 42 AUDIO
    TITLE "3:cjc157_2140"
    INDEX 01 00:51:65
  TRACK 43 AUDIO
    TITLE "0:"
    INDEX 01 00:53:47
  TRACK 44 AUDIO
    TITLE "4:cjc157_2141"
    INDEX 01 00:54:17
  TRACK 45 AUDIO
    TITLE "0:"
    INDEX 01 00:55:38
  TRACK 46 AUDIO
    TITLE "5:cjc157_2142"
    INDEX 01 00:56:04
  TRACK 47 AUDIO
    TITLE "0:"
    INDEX 01 01:00:04
  TRACK 48 AUDIO
    TITLE "3:cjc157_2143"
    INDEX 01 01:00:47
  TRACK 49 AUDIO
    TITLE "0:"
    INDEX 01 01:01:64
  TRACK 50 AUDIO
    TITLE "4:cjc157_2144"
    INDEX 01 01:02:32
  TRACK 51 AUDIO
    TITLE "0:"
    INDEX 01 01:05:32
  TRACK 52 AUDIO
    TITLE "5:cjc157_2145"
    INDEX 01 01:06:04
  TRACK 53 AUDIO
    TITLE "0:"
    INDEX 01 01:10:30
  TRACK 54 AUDIO
    TITLE "5:cjc157_2146"
    INDEX 01 01:11:00
  TRACK 55 AUDIO
    TITLE "0:"
    INDEX 01 01:13:65
  TRACK 56 AUDIO
    TITLE "5:cjc157_2147"
    INDEX 01 01:14:41
  TRACK 57 AUDIO
    TITLE "0:"
    INDEX 01 01:15:58
  TRACK 58 AUDIO
    TITLE "3:cjc157_2148"
    INDEX 01 01:16:24
  TRACK 59 AUDIO
    TITLE "0:"
    INDEX 01 01:17:67
  TRACK 60 AUDIO
    TITLE "4:cjc157_2149"
    INDEX 01 01:18:39
  TRACK 61 AUDIO
    TITLE "0:"
    INDEX 01 01:19:68
  TRACK 62 AUDIO
    TITLE "5:cjc157_2150"
    INDEX 01 01:20:36
  TRACK 63 AUDIO
    TITLE "0:"
    INDEX 01 01:23:15
  TRACK 64 AUDIO
    TITLE "5:cjc157_2151"
    INDEX 01 01:23:60
  TRACK 65 AUDIO
    TITLE "0:"
    INDEX 01 01:26:68
  TRACK 66 AUDIO
    TITLE "3:cjc157_2152"
    INDEX 01 01:27:36
  TRACK 67 AUDIO
    TITLE "0:"
    INDEX 01 01:28:59
  TRACK 68 AUDIO
    TITLE "4:cjc157_2153"
    INDEX 01 01:29:27
  TRACK 69 AUDIO
    TITLE "0:"
    INDEX 01 01:30:48
  TRACK 70 AUDIO
    TITLE "5:cjc157_2154"
    INDEX 01 01:31:18
  TRACK 71 AUDIO
    TITLE "0:"
    INDEX 01 01:33:17
  TRACK 72 AUDIO
    TITLE "5:cjc157_2155"
    INDEX 01 01:33:62
  TRACK 73 AUDIO
    TITLE "0:"
    INDEX 01 01:36:70
